TITLE ""
FILE "P1Q_t_0710-0719.mp3" MP3
  TRACK 01 AUDIO
    TITLE "P1Q_t_0710-0719_01"
    INDEX 01 00:00:00
  TRACK 02 AUDIO
    TITLE "P1Q_t_0710-0719_02"
    INDEX 01 00:01:16
  TRACK 03 AUDIO
    TITLE "P1Q_t_0710-0719_03"
    INDEX 01 00:01:37
  TRACK 04 AUDIO
    TITLE "P1Q_t_0710-0719_04"
    INDEX 01 00:04:45
  TRACK 05 AUDIO
    TITLE "P1Q_t_0710-0719_05"
    INDEX 01 00:04:69
  TRACK 06 AUDIO
    TITLE "P1Q_t_0710-0719_06"
    INDEX 01 00:09:31
  TRACK 07 AUDIO
    TITLE "P1Q_t_0710-0719_07"
    INDEX 01 00:10:03
  TRACK 08 AUDIO
    TITLE "P1Q_t_0710-0719_08"
    INDEX 01 00:11:20
  TRACK 09 AUDIO
    TITLE "P1Q_t_0710-0719_09"
    INDEX 01 00:11:41
  TRACK 10 AUDIO
    TITLE "P1Q_t_0710-0719_10"
    INDEX 01 00:13:11
  TRACK 11 AUDIO
    TITLE "P1Q_t_0710-0719_11"
    INDEX 01 00:13:33
  TRACK 12 AUDIO
    TITLE "P1Q_t_0710-0719_12"
    INDEX 01 00:17:15
  TRACK 13 AUDIO
    TITLE "P1Q_t_0710-0719_13"
    INDEX 01 00:17:60
  TRACK 14 AUDIO
    TITLE "P1Q_t_0710-0719_14"
    INDEX 01 00:19:06
  TRACK 15 AUDIO
    TITLE "P1Q_t_0710-0719_15"
    INDEX 01 00:19:27
  TRACK 16 AUDIO
    TITLE "P1Q_t_0710-0719_16"
    INDEX 01 00:22:33
  TRACK 17 AUDIO
    TITLE "P1Q_t_0710-0719_17"
    INDEX 01 00:22:53
  TRACK 18 AUDIO
    TITLE "P1Q_t_0710-0719_18"
    INDEX 01 00:26:29
  TRACK 19 AUDIO
    TITLE "P1Q_t_0710-0719_19"
    INDEX 01 00:27:01
  TRACK 20 AUDIO
    TITLE "P1Q_t_0710-0719_20"
    INDEX 01 00:28:16
  TRACK 21 AUDIO
    TITLE "P1Q_t_0710-0719_21"
    INDEX 01 00:28:38
  TRACK 22 AUDIO
    TITLE "P1Q_t_0710-0719_22"
    INDEX 01 00:31:13
  TRACK 23 AUDIO
    TITLE "P1Q_t_0710-0719_23"
    INDEX 01 00:31:32
  TRACK 24 AUDIO
    TITLE "P1Q_t_0710-0719_24"
    INDEX 01 00:35:36
  TRACK 25 AUDIO
    TITLE "P1Q_t_0710-0719_25"
    INDEX 01 00:36:18
  TRACK 26 AUDIO
    TITLE "P1Q_t_0710-0719_26"
    INDEX 01 00:37:39
  TRACK 27 AUDIO
    TITLE "P1Q_t_0710-0719_27"
    INDEX 01 00:37:60
  TRACK 28 AUDIO
    TITLE "P1Q_t_0710-0719_28"
    INDEX 01 00:44:25
  TRACK 29 AUDIO
    TITLE "P1Q_t_0710-0719_29"
    INDEX 01 00:44:45
  TRACK 30 AUDIO
    TITLE "P1Q_t_0710-0719_30"
    INDEX 01 00:48:31
  TRACK 31 AUDIO
    TITLE "P1Q_t_0710-0719_31"
    INDEX 01 00:49:03
  TRACK 32 AUDIO
    TITLE "P1Q_t_0710-0719_32"
    INDEX 01 00:50:12
  TRACK 33 AUDIO
    TITLE "P1Q_t_0710-0719_33"
    INDEX 01 00:50:34
  TRACK 34 AUDIO
    TITLE "P1Q_t_0710-0719_34"
    INDEX 01 00:53:36
  TRACK 35 AUDIO
    TITLE "P1Q_t_0710-0719_35"
    INDEX 01 00:53:57
  TRACK 36 AUDIO
    TITLE "P1Q_t_0710-0719_36"
    INDEX 01 00:59:31
  TRACK 37 AUDIO
    TITLE "P1Q_t_0710-0719_37"
    INDEX 01 01:00:03
  TRACK 38 AUDIO
    TITLE "P1Q_t_0710-0719_38"
    INDEX 01 01:01:20
  TRACK 39 AUDIO
    TITLE "P1Q_t_0710-0719_39"
    INDEX 01 01:01:39
  TRACK 40 AUDIO
    TITLE "P1Q_t_0710-0719_40"
    INDEX 01 01:03:13
  TRACK 41 AUDIO
    TITLE "P1Q_t_0710-0719_41"
    INDEX 01 01:03:32
  TRACK 42 AUDIO
    TITLE "P1Q_t_0710-0719_42"
    INDEX 01 01:07:64
  TRACK 43 AUDIO
    TITLE "P1Q_t_0710-0719_43"
    INDEX 01 01:08:32
  TRACK 44 AUDIO
    TITLE "P1Q_t_0710-0719_44"
    INDEX 01 01:09:51
  TRACK 45 AUDIO
    TITLE "P1Q_t_0710-0719_45"
    INDEX 01 01:09:72
  TRACK 46 AUDIO
    TITLE "P1Q_t_0710-0719_46"
    INDEX 01 01:13:19
  TRACK 47 AUDIO
    TITLE "P1Q_t_0710-0719_47"
    INDEX 01 01:13:39
  TRACK 48 AUDIO
    TITLE "P1Q_t_0710-0719_48"
    INDEX 01 01:18:06
  TRACK 49 AUDIO
    TITLE "P1Q_t_0710-0719_49"
    INDEX 01 01:18:52
  TRACK 50 AUDIO
    TITLE "P1Q_t_0710-0719_50"
    INDEX 01 01:19:67
  TRACK 51 AUDIO
    TITLE "P1Q_t_0710-0719_51"
    INDEX 01 01:20:13
  TRACK 52 AUDIO
    TITLE "P1Q_t_0710-0719_52"
    INDEX 01 01:23:74
  TRACK 53 AUDIO
    TITLE "P1Q_t_0710-0719_53"
    INDEX 01 01:24:19
  TRACK 54 AUDIO
    TITLE "P1Q_t_0710-0719_54"
    INDEX 01 01:29:36
  TRACK 55 AUDIO
    TITLE "P1Q_t_0710-0719_55"
    INDEX 01 01:30:08
  TRACK 56 AUDIO
    TITLE "P1Q_t_0710-0719_56"
    INDEX 01 01:31:11
  TRACK 57 AUDIO
    TITLE "P1Q_t_0710-0719_57"
    INDEX 01 01:31:35
  TRACK 58 AUDIO
    TITLE "P1Q_t_0710-0719_58"
    INDEX 01 01:33:37
  TRACK 59 AUDIO
    TITLE "P1Q_t_0710-0719_59"
    INDEX 01 01:33:59
  TRACK 60 AUDIO
    TITLE "P1Q_t_0710-0719_60"
    INDEX 01 01:38:15
